<?xml version="1.0" encoding="utf-8"?>
<!-- Generator: Adobe Illustrator 26.0.1, SVG Export Plug-In . SVG Version: 6.00 Build 0)  -->
<svg version="1.1" id="Rustique" xmlns="http://www.w3.org/2000/svg" xmlns:xlink="http://www.w3.org/1999/xlink" x="0px" y="0px"
	 viewBox="0 0 30 35" style="enable-background:new 0 0 30 35;" xml:space="preserve">
<style type="text/css">
	.st0{fill:#F59D1B;}
	.st1{fill:#1B1F1D;}
</style>
<g id="Rustique_00000062150469223919283480000006328113162116621199_">
	<path class="st0" d="M13.7,2.2c0,0.1,0,0.2,0,0.2c0,6.6,0,13.2,0,19.8c0,0.2,0,0.2-0.2,0.2c-3.7,0-7.4,0-11.2,0
		c-0.2,0-0.2,0-0.2-0.2c0-3.2,0-6.5,0-9.7c0-0.1,0-0.2,0.1-0.3C6,8.9,9.8,5.6,13.7,2.2C13.6,2.3,13.6,2.2,13.7,2.2z"/>
	<path class="st1" d="M15.2,32.6c0-0.1,0-0.2,0-0.2c0-6.6,0-13.2,0-19.8c0-0.2,0.1-0.2,0.2-0.2c3.7,0,7.5,0,11.2,0
		c0.2,0,0.2,0,0.2,0.2c0,3.2,0,6.5,0,9.7c0,0.1,0,0.2-0.1,0.3c-3.8,3.3-7.6,6.6-11.3,9.9C15.3,32.5,15.3,32.5,15.2,32.6z"/>
</g>
</svg>
